<?xml version="1.0" encoding="UTF-8"?>
<svg id="Layer_1" data-name="Layer 1" xmlns="http://www.w3.org/2000/svg" xmlns:xlink="http://www.w3.org/1999/xlink" version="1.1" viewBox="0 0 128 128">
  <defs>
    <style>
      .cls-1 {
        fill: url(#New_Gradient_Swatch_1);
      }

      .cls-1, .cls-2, .cls-3, .cls-4, .cls-5, .cls-6, .cls-7, .cls-8, .cls-9, .cls-10, .cls-11, .cls-12, .cls-13, .cls-14, .cls-15, .cls-16, .cls-17, .cls-18, .cls-19, .cls-20, .cls-21, .cls-22, .cls-23, .cls-24, .cls-25, .cls-26, .cls-27, .cls-28, .cls-29, .cls-30, .cls-31, .cls-32, .cls-33, .cls-34, .cls-35, .cls-36, .cls-37, .cls-38, .cls-39 {
        stroke-width: 0px;
      }

      .cls-2 {
        fill: url(#New_Gradient_Swatch_1-7);
      }

      .cls-3 {
        fill: url(#New_Gradient_Swatch_1-4);
      }

      .cls-4 {
        fill: url(#New_Gradient_Swatch_1-6);
      }

      .cls-5 {
        fill: url(#New_Gradient_Swatch_1-9);
      }

      .cls-6 {
        fill: url(#New_Gradient_Swatch_1-3);
      }

      .cls-7 {
        fill: url(#New_Gradient_Swatch_1-2);
      }

      .cls-8 {
        fill: url(#New_Gradient_Swatch_1-8);
      }

      .cls-9 {
        fill: url(#New_Gradient_Swatch_1-5);
      }

      .cls-10 {
        fill: url(#New_Gradient_Swatch_1-12);
      }

      .cls-11 {
        fill: url(#New_Gradient_Swatch_1-11);
      }

      .cls-12 {
        fill: url(#New_Gradient_Swatch_1-10);
      }

      .cls-13 {
        fill: url(#New_Gradient_Swatch_1-19);
      }

      .cls-14 {
        fill: url(#New_Gradient_Swatch_1-17);
      }

      .cls-15 {
        fill: url(#New_Gradient_Swatch_1-13);
      }

      .cls-16 {
        fill: url(#New_Gradient_Swatch_1-18);
      }

      .cls-17 {
        fill: url(#New_Gradient_Swatch_1-16);
      }

      .cls-18 {
        fill: url(#New_Gradient_Swatch_1-15);
      }

      .cls-19 {
        fill: url(#New_Gradient_Swatch_1-14);
      }

      .cls-20 {
        fill: url(#New_Gradient_Swatch_1-29);
      }

      .cls-21 {
        fill: url(#New_Gradient_Swatch_1-26);
      }

      .cls-22 {
        fill: url(#New_Gradient_Swatch_1-25);
      }

      .cls-23 {
        fill: url(#New_Gradient_Swatch_1-22);
      }

      .cls-24 {
        fill: url(#New_Gradient_Swatch_1-21);
      }

      .cls-25 {
        fill: url(#New_Gradient_Swatch_1-28);
      }

      .cls-26 {
        fill: url(#New_Gradient_Swatch_1-27);
      }

      .cls-27 {
        fill: url(#New_Gradient_Swatch_1-24);
      }

      .cls-28 {
        fill: url(#New_Gradient_Swatch_1-23);
      }

      .cls-29 {
        fill: url(#New_Gradient_Swatch_1-20);
      }

      .cls-30 {
        fill: url(#New_Gradient_Swatch_1-32);
      }

      .cls-31 {
        fill: url(#New_Gradient_Swatch_1-33);
      }

      .cls-32 {
        fill: url(#New_Gradient_Swatch_1-37);
      }

      .cls-33 {
        fill: url(#New_Gradient_Swatch_1-36);
      }

      .cls-34 {
        fill: url(#New_Gradient_Swatch_1-30);
      }

      .cls-35 {
        fill: url(#New_Gradient_Swatch_1-35);
      }

      .cls-36 {
        fill: url(#New_Gradient_Swatch_1-38);
      }

      .cls-37 {
        fill: url(#New_Gradient_Swatch_1-34);
      }

      .cls-38 {
        fill: url(#New_Gradient_Swatch_1-31);
      }

      .cls-39 {
        fill: #fff;
      }
    </style>
    <linearGradient id="New_Gradient_Swatch_1" data-name="New Gradient Swatch 1" x1="68.6" y1="13.7" x2="68.7" y2="13.7" gradientUnits="userSpaceOnUse">
      <stop offset=".2" stop-color="#ce3375"/>
      <stop offset=".8" stop-color="#1a5091"/>
      <stop offset="1" stop-color="#56cbb3"/>
    </linearGradient>
    <linearGradient id="New_Gradient_Swatch_1-2" data-name="New Gradient Swatch 1" x1="84.4" y1="119.3" x2="94.3" y2="119.3" xlink:href="#New_Gradient_Swatch_1"/>
    <linearGradient id="New_Gradient_Swatch_1-3" data-name="New Gradient Swatch 1" x1="76.2" y1="3" x2="77.8" y2="3" xlink:href="#New_Gradient_Swatch_1"/>
    <linearGradient id="New_Gradient_Swatch_1-4" data-name="New Gradient Swatch 1" x1="75" y1="125.3" x2="75.2" y2="125.3" xlink:href="#New_Gradient_Swatch_1"/>
    <linearGradient id="New_Gradient_Swatch_1-5" data-name="New Gradient Swatch 1" x1="62.9" y1=".7" x2="63.1" y2=".7" xlink:href="#New_Gradient_Swatch_1"/>
    <linearGradient id="New_Gradient_Swatch_1-6" data-name="New Gradient Swatch 1" x1=".4" y1="50.5" x2="31.9" y2="50.5" xlink:href="#New_Gradient_Swatch_1"/>
    <linearGradient id="New_Gradient_Swatch_1-7" data-name="New Gradient Swatch 1" x1="63" y1="125.3" x2="79" y2="125.3" xlink:href="#New_Gradient_Swatch_1"/>
    <linearGradient id="New_Gradient_Swatch_1-8" data-name="New Gradient Swatch 1" x1="62.1" y1="124.8" x2="63.8" y2="124.8" xlink:href="#New_Gradient_Swatch_1"/>
    <linearGradient id="New_Gradient_Swatch_1-9" data-name="New Gradient Swatch 1" x1="77" y1="4.3" x2="78.3" y2="4.3" xlink:href="#New_Gradient_Swatch_1"/>
    <linearGradient id="New_Gradient_Swatch_1-10" data-name="New Gradient Swatch 1" x1="58.8" y1="124.5" x2="61.2" y2="124.5" xlink:href="#New_Gradient_Swatch_1"/>
    <linearGradient id="New_Gradient_Swatch_1-11" data-name="New Gradient Swatch 1" x1="59.1" y1="125.3" x2="62.1" y2="125.3" xlink:href="#New_Gradient_Swatch_1"/>
    <linearGradient id="New_Gradient_Swatch_1-12" data-name="New Gradient Swatch 1" x1="79.2" y1="122.3" x2="81.8" y2="122.3" xlink:href="#New_Gradient_Swatch_1"/>
    <linearGradient id="New_Gradient_Swatch_1-13" data-name="New Gradient Swatch 1" x1="79.3" y1="12.2" x2="109.7" y2="12.2" xlink:href="#New_Gradient_Swatch_1"/>
    <linearGradient id="New_Gradient_Swatch_1-14" data-name="New Gradient Swatch 1" x1="59.9" y1="126.3" x2="59.9" y2="126.3" xlink:href="#New_Gradient_Swatch_1"/>
    <linearGradient id="New_Gradient_Swatch_1-15" data-name="New Gradient Swatch 1" x1="76.9" y1="2.1" x2="77.7" y2="2.1" xlink:href="#New_Gradient_Swatch_1"/>
    <linearGradient id="New_Gradient_Swatch_1-16" data-name="New Gradient Swatch 1" x1="75.9" y1="5.5" x2="77.7" y2="5.5" xlink:href="#New_Gradient_Swatch_1"/>
    <linearGradient id="New_Gradient_Swatch_1-17" data-name="New Gradient Swatch 1" x1="80.2" y1="6.1" x2="80.3" y2="6.1" xlink:href="#New_Gradient_Swatch_1"/>
    <linearGradient id="New_Gradient_Swatch_1-18" data-name="New Gradient Swatch 1" x1="35.6" y1="9.8" x2="39.9" y2="9.8" xlink:href="#New_Gradient_Swatch_1"/>
    <linearGradient id="New_Gradient_Swatch_1-19" data-name="New Gradient Swatch 1" x1="29.1" y1="10.9" x2="30.6" y2="10.9" xlink:href="#New_Gradient_Swatch_1"/>
    <linearGradient id="New_Gradient_Swatch_1-20" data-name="New Gradient Swatch 1" x1="56.2" y1="2.7" x2="75.7" y2="2.7" xlink:href="#New_Gradient_Swatch_1"/>
    <linearGradient id="New_Gradient_Swatch_1-21" data-name="New Gradient Swatch 1" x1="43.5" y1="5.6" x2="53.3" y2="5.6" xlink:href="#New_Gradient_Swatch_1"/>
    <linearGradient id="New_Gradient_Swatch_1-22" data-name="New Gradient Swatch 1" x1="78.1" y1="2.9" x2="79.3" y2="2.9" xlink:href="#New_Gradient_Swatch_1"/>
    <linearGradient id="New_Gradient_Swatch_1-23" data-name="New Gradient Swatch 1" x1="91" y1="6.4" x2="91" y2="6.4" xlink:href="#New_Gradient_Swatch_1"/>
    <linearGradient id="New_Gradient_Swatch_1-24" data-name="New Gradient Swatch 1" x1="98.6" y1="11.4" x2="99.8" y2="11.4" xlink:href="#New_Gradient_Swatch_1"/>
    <linearGradient id="New_Gradient_Swatch_1-25" data-name="New Gradient Swatch 1" x1="121.2" y1="50" x2="124.9" y2="50" xlink:href="#New_Gradient_Swatch_1"/>
    <linearGradient id="New_Gradient_Swatch_1-26" data-name="New Gradient Swatch 1" x1="93.9" y1="87.3" x2="127.6" y2="87.3" xlink:href="#New_Gradient_Swatch_1"/>
    <linearGradient id="New_Gradient_Swatch_1-27" data-name="New Gradient Swatch 1" x1="5.6" y1="106.5" x2="58.2" y2="106.5" xlink:href="#New_Gradient_Swatch_1"/>
    <linearGradient id="New_Gradient_Swatch_1-28" data-name="New Gradient Swatch 1" x1="27.6" y1="11.7" x2="34.9" y2="11.7" xlink:href="#New_Gradient_Swatch_1"/>
    <linearGradient id="New_Gradient_Swatch_1-29" data-name="New Gradient Swatch 1" x1="109.2" y1="31.5" x2="121.5" y2="31.5" xlink:href="#New_Gradient_Swatch_1"/>
    <linearGradient id="New_Gradient_Swatch_1-30" data-name="New Gradient Swatch 1" x1="33.2" y1="95.5" x2="88.9" y2="95.5" xlink:href="#New_Gradient_Swatch_1"/>
    <linearGradient id="New_Gradient_Swatch_1-31" data-name="New Gradient Swatch 1" x1="61.8" y1="103.7" x2="62.6" y2="103.7" xlink:href="#New_Gradient_Swatch_1"/>
    <linearGradient id="New_Gradient_Swatch_1-32" data-name="New Gradient Swatch 1" x1="62" y1="120.5" x2="62.2" y2="120.5" xlink:href="#New_Gradient_Swatch_1"/>
    <linearGradient id="New_Gradient_Swatch_1-33" data-name="New Gradient Swatch 1" x1="61.5" y1="120.2" x2="62" y2="120.2" xlink:href="#New_Gradient_Swatch_1"/>
    <linearGradient id="New_Gradient_Swatch_1-34" data-name="New Gradient Swatch 1" x1="52.3" y1="113.9" x2="65.5" y2="113.9" xlink:href="#New_Gradient_Swatch_1"/>
    <linearGradient id="New_Gradient_Swatch_1-35" data-name="New Gradient Swatch 1" x1="74" y1="112.2" x2="84.7" y2="112.2" xlink:href="#New_Gradient_Swatch_1"/>
    <linearGradient id="New_Gradient_Swatch_1-36" data-name="New Gradient Swatch 1" x1="33.9" y1="108" x2="44.6" y2="108" xlink:href="#New_Gradient_Swatch_1"/>
    <linearGradient id="New_Gradient_Swatch_1-37" data-name="New Gradient Swatch 1" x1="22.6" y1="53.7" x2="110.2" y2="53.7" xlink:href="#New_Gradient_Swatch_1"/>
    <linearGradient id="New_Gradient_Swatch_1-38" data-name="New Gradient Swatch 1" x1="109.6" y1="66.8" x2="109.7" y2="66.8" xlink:href="#New_Gradient_Swatch_1"/>
  </defs>
  <path class="cls-1" d="M68.6,13.7s0,0,0,0c0,0,0,0,0,0h0Z"/>
  <path class="cls-7" d="M93.9,119.3c0-.1-1.1,0-1.2,0,0,0,.7-.3.8-.4.4-.5-2.1-.4-1.9-.9.2-.3,2.4-1.1,2.1-1.4,0,0,0,0,0,0-.1,0-.2.1-.3.2-2.1,1.2-4.3,2.3-6.6,3.2,0,0-.2,0-.2,0-.7.2-1.5.2-2.2.5.2.4.7.9.5,1.4,1.4-.2,4.5-.8,4.3-1.1.9-.1.5,0,.4.2.7-.1,1-.2,1.2-.3.2.4.3.4.3.8,0,0,.3,0,.5,0,.3-.2.7-.3,1-.5,0,0,.1,0,.2-.1.4-.2.8-.8,1.5-1.2-.4,0-1.1,0-1.2,0-.1,0,.7-.3.8-.4ZM89.6,120.7c-2.3.2.1-.8-1.5-.9,1.9-.5.4.5,1.9.2-.1.1-.5.3-.8.4.2,0,1.4-.1.4.2Z"/>
  <path class="cls-6" d="M77.1,3.3c.3,0,1.2,0,.3-.4-1.6-.5-1.5,0-.3.4Z"/>
  <path class="cls-3" d="M75,125.4c0,0,.2,0,.3-.1,0,0,0,0,0,0-.2,0-.2,0-.2.1Z"/>
  <path class="cls-9" d="M63.1.6c0,0-.2,0-.3,0,0,0,0,0,0,0,0,0,.2,0,.2,0Z"/>
  <path class="cls-4" d="M7.6,85.4c-.1-.3-.3-.5-.4-.7,0,0,0-.1,0-.2-.5-1.5-1-3-1.4-4.5,0-.1,0-.2,0-.4-1-1.4-.7-3.4-1.2-4.5,0-.1,0-.2,0-.4-.3-1.8.1-3.6-.5-5.2,0,0,0-.2,0-.2-.1-1.2-.2-2.5-.2-3.7,0,0,0-.1,0-.2,0,0,0-.1,0-.2-.1,0-.2,0-.3,0-.1-.7,0-.9.2-1.3,0,0,0,.2.1.3,0-.7,0-1.4,0-2,0,0,0-.1,0-.2,0-.7,0-1.4.1-2.1,0,0,0-.1,0-.2.3-1.1.4-1.8.3-3.2,0,0,0-.2,0-.2,0-.6.2-1.1.2-1.7,0,0,0-.1,0-.2.2-1,.3-1.6.6-3.1,0,0,0-.1,0-.2.2-.9.4-1.9.7-2.8,0,0,0-.1,0-.2-.3-.6,0-1,.2-1.4,0,0,.1-.2.2-.3.7-2.5,2.2-4.3,2.5-6.5,0-.1.1-.2.2-.3,0,0,0-.1,0-.2.5-1.6,2-3.4,2.6-5,0,0,0-.1.1-.2,0-.1.1-.2.2-.3,0,0,0-.1.1-.2,2.8-3.2,4.5-6.9,7.5-10.1,0,0,.1-.1.2-.2.3-.3.6-.7,1-1,0,0,.1-.1.2-.2,2.2-1.9,3.8-4.3,6.2-5.5,0,0,.1,0,.2-.1,1.5-1.1,3-2.2,4.6-3.2-.9,0-2.3.3-1.5-.3-1.1.2-2,.6-2.7.5-1.3.4-2,.9-3,1.1-.6,0,1.3-.4,1.1-.5-.1,0-.5,0-.9,0-1.9,1.4-3.6,3-5.3,4.6,0,0-.1.1-.2.2-1.3,0-.9,2.1-2.2,2.3,0,0-.2.2-.3.3-.4.5-.9,1-1.3,1.5,0,.1-.2.2-.3.3-.3,0-1.1.6-1,1.2,0,.1-.2.2-.2.3,0,0,0,.1-.1.2,0,0,0,.1-.1.2-.5,1.8-2.5,2.3-2.8,3.8,0,.1-.1.2-.2.3-.1.2-.2.3-.3.5,0,0,0,.1-.1.2-.7,1.1-1.5,1.7-1.7,2.8,0,0,0,.1-.1.2-1.5,2.7-2.9,5.6-4,8.5,0,.1,0,.2-.1.4-.7,2.3-1.7,5.5-2.4,8.1,0,0,0,.1,0,.2-.6,2.4-1,4.9-1.2,7.5-.8,7.2-.3,14.2,1.3,20.9,0,.1,0,.3,0,.4,0,.1.1.2.2.3,0,0,0,0,0,0,0,0,0,0,0,0,0,0,0,0,0,.1.2.2.3.5.4.8,0,.2.1.4.2.6h-.2c0,.5,0,1,.3,1.5,0,0,0,.2,0,.2,0,0,0,.1,0,.2,0,.1,0,.3,0,.4q.3.2.3,1c0,.1,0,.2.1.3,0,0,0,.2.1.3,0,0,0,.1,0,.2.4,1.1.8,2.2,1.2,3.2.5-1.8,2.2-.2,2.6-2.7ZM2.8,65.3c-.4,1.5-1.6.6-2.2,1.7-.2-1.8.7-2.3,1.8-1.2,0-.3-.3-.9,0-.8.3-.3,1.2,0,.5.3Z"/>
  <path class="cls-2" d="M79,122.7c-.2,0-.3,0-.4,0-4,1-8.1,1.6-12.3,1.8-.1,0-.2,0-.2,0-.6-.2-1.1.1-1.7.3,0,0-.2.2,0,.2,0,0,.1,0,.2,0,0,0-.1,0-.2,0-.6,0-1.1.2-1.3.4,0,.1.7,0,1.3,0-1,.1-.7.3-.5.5,1.1,0,.7-.2,1.1-.3,1.4,0-1.3.3-1.4.4.4,0,1.3,0,1.6,0,0,0,0,0,0,0,0,0,0,0,0,0-.3,0-.9.3-1.4.5.1.2.2.4.2.7.3,0,.7,0,1.1,0-.7,0-.6.2-1,.3.1.2.4.4.8.5.3,0,.5,0,.8-.2.1,0,.3,0,.4,0,1.9,0,3.8-.2,5.7-.5.2-.3.9-.8,1.8-1.3-.1,0-.2,0-.3,0,0,0-.6,0-.5-.2.8,0,.8-.1,1.4-.2,0,0,0,0,.1,0-.8-.1-.4-.4-.5-.7,1.1,0-.5.2.5.2,1.8-.2.7-.4,1.7-.6,0,0,.1,0,.1,0,.6-.4.9-.8.5-1-.4,0-.8,0-1.2.1,0-.1,1.5-.2,1.5-.4.2,0,.4,0,.5,0,.4-.1.8-.3,1.3-.4-.3,0-.2-.2.3-.3ZM67.5,125.7c1.4-.2.7.1,1,.2-1.3,0-1.1,0-1-.2ZM68.7,126.9c.4-.2-.5-.2.1-.4.6,0,1.3.4-.1.4ZM70.8,125c-1.1,0-.2-.3,1.1-.3.5.1-1,.2-1.1.3ZM75.5,123.8c1.5,0,0,.2,1,.2,0,0-1.3.2-1.1.3-1.4,0,.8-.3.6-.4-.3,0-2,.2-1.7,0,.6,0,1.1,0,1.2,0Z"/>
  <path class="cls-8" d="M62.9,124.5c-.1,0-.3,0-.4,0,0,0-.2,0-.3,0-.3.4.3.8,1.6.3-.3,0-.6,0-.9-.3Z"/>
  <path class="cls-5" d="M77.7,4.7c.4-.2.9-.4.2-.8-1,0-1.4.3-.2.8Z"/>
  <path class="cls-12" d="M61.2,124.6c-1.1,0-1.1-.1-1.1-.2-.4,0-.9,0-1.3-.1,0,.2.6.5,1.2.5.3,0,.6-.1,1.2-.2Z"/>
  <path class="cls-11" d="M62,125.1c-2.2.3-1.1-.2-2.9,0,.5.1.2.4,2.3.3-.7-.1,1-.2.6-.3Z"/>
  <path class="cls-10" d="M79.2,122.6c0,0,.1.1.2.2.8-.2,1.6-.5,2.4-.7,0,0-.1,0-.2-.1-.8.2-1.6.5-2.4.7Z"/>
  <path class="cls-15" d="M79.3,3.4c2.6.6.7.7,2.1,1.4-.7-.2-.9-.3-.8-.5-.6,0-.3.2-1.1.1.8.3,1.1.6,1.2.8.8-.3,0-.3,1.6-.7.2.1-.7.3-.4.4-.6.2-.7.1-1.2.3,0,0,0,.1,0,.2,0,0,0,0,0,0,.1.1.4.2.5.4,0,0,0,0-.1,0,.1,0,.3.2.5.3-.1,0-.1.2-.7,0,0,0,0,0,0,.1,0,0,.2,0,.2,0,.8.2,1.7.5,2.5.8,0,0,.1,0,.2,0,1.8,1.2,3.7,1.4,5.8,2.4.1,0,.2.1.4.2.8.4,1.6.8,2.3,1.2.5.2,1.1.4,1.1.5,0,0-.1,0-.2,0,.3.2.7.4,1,.6.2,0,.4-.2.4-.2.8.5.8.7.6.8.8.5,1.5.9,2.2,1.4.1-.1.3-.2.3-.3,0,.3,0,.4,0,.6,3.2,2.2,6.1,4.6,8.8,7.3,0-.2,0-.3-.1-.5,1.2.6,2.1-.8,3.2-1.1-.1-.2-.3-.3-.4-.5,0,0-.1-.1-.2-.2-.7-.5-1.1-1.1-1.6-1.7,0,0,0,0,0,0h0c-.2-.3-.5-.5-.7-.8,0,0-.2.3-.1.6-.2-.5-.3-.7-.2-.9-.1,0-.2-.2-.4-.2,0,0-.2-.2-.3-.3-.3-.3-.6-.5-.9-.8-.1,0-.2-.2-.3-.3-.6-.2-.7-.3-.8-.6,0,0,0,0,0,0-.2,0-.7-.5-1.1-.9-.3-.3-.7-.5-1-.8,0,0-.1,0-.1.2,0-.1,0-.3-.1-.4-.4-.3-.8-.6-1.2-.8-.1.2,0,.4.2.6h.2c.4.9.6,1.6.4,1.5-.1-.2-.2-.5-.4-.8,0,0,0,0-.1,0-.6-.4-1.2-.5-1.5-.3-.6-.3-1.4-.8-.9-.8-.7-.3-2.4-.7-3.1-1-1.6-.3.2.4-1.1.2-.8-.5-1.2-1.4.1-1.3-.2-.3-2.4-.7-2-.9-1.5-.4-.6.1-1.9-.3-1.2-.4,2.1-.2-.5-.8.3-.1.9.2,1.6.4,1.5,0,.6-.9,1.2-1.2-.1,0-.2-.1-.3-.2-.5-.1-1.3-.3-1.2-.1-1-.4-1-.7-2.8-1.2,0-.1,1.7.4,1.5.2-.4-.1-.9-.3-1.5-.5-.4,0-.8-.2-1.1-.4-.7-.2-1.2-.5-1.2-.6-1-.3-1.9-.7-2.9-1,0,0-.1,0-.2,0-.4,0-.6-.1-.9-.3,0,0-.1,0-.1,0-.6-.2-.6-.4-.3-.4-.3-.2-.5-.3-.6,0,0,0-.1,0-.2,0,0,0-.1,0-.2,0,0,0-.2,0-.7,0,0,.1.5.3.4.4.4,0,.3,0,.4,0,1.2.5-1.2,0-1,.4ZM103.6,16.8c-.3,0-.4,0-.3.2-1.5-.4-1.1-.1-2.3-.4.7,0,1.6.1,2.6.3Z"/>
  <path class="cls-19" d="M59.9,126.3s0,0,0,0c0,0,0,0,0,0,0,0,0,0,0,0Z"/>
  <path class="cls-18" d="M77.3,2.3c.2,0,.3-.1.4-.2-.3,0-.5-.1-.8-.2,0,.1.2.2.4.3Z"/>
  <path class="cls-17" d="M75.9,5.3c.6.2,1.2.5,1.7.6-.2-.2-.5-.4-1.7-.7.2.1.1.2,0,.1Z"/>
  <path class="cls-14" d="M80.3,6.1s0,0,0,0c0,0,0,0,0,0,0,0,0,0,0,0Z"/>
  <path class="cls-16" d="M36.2,10.8c1.2-.6,2.4-1.2,3.7-1.8,0,0,0,0,0-.1-2,.5-2.7,1-4.2,1.6.4,0,.5.2.6.3Z"/>
  <path class="cls-13" d="M29.8,11c0,0,.3-.2.8-.3,0-.3-2.6.8-.8.3Z"/>
  <path class="cls-29" d="M56.6,4.4c0,0,.1,0,.2,0-.3-.1-.4-.2-.2-.3.3,0,.5.1.7.2,1.7-.4,3.8-.2,5.5-.2,0,0,.1,0,.2,0,2.4,0,4.8,0,7.3.3,1.2.1,2.4.3,3.6.5.2,0,.4,0,.5,0,0-.1-.6-.3-1.2-.5,1,.2.8-.1.7-.3-1.1-.3-.7,0-1.1,0-1.3-.5,1.4.1,1.5,0-.4-.1-1.2-.4-1.5-.5,0,0,0,0-.1,0,0,0,0,0,.1,0,.9,0,4.4,0,.4-1.3,1,.2.4-.3,2.3.2-.5-.4-1.3-.7.3-.4,0,0-.1,0-.2-.1-1.6-.3-3.3-.5-4.9-.7-1.7-.2-3.4-.3-5.1-.3,0,0,0,0,0,0,0,0,0,0,0,0-.4,0-.8,0-1.2,0,.3.3,0,.5,0,.7-1.1-.3.5,0-.4-.4-1.8-.4-.9.2-1.8,0-.4-.2,0-.2.2-.4-.4,0-.8,0-1.2,0-.2.4-.2.8.2,1-.1,0-.2.1-.3.2.5.1.9.2,1.4.3,0,.2-1.5-.3-1.5-.1,0,0-.1,0-.2,0-.2.1-.5.2-.7.3.2,0,.3,0,.6.1-.3,0-.7,0-1,0-.2,0-.3.2-.5.2,0,0,.2.2.5.3,0,0-.4,0-.7-.2-.2,0-.3.1-.5.2.4,0,1,0,1.6.2,1.2.5-2.1-.2-.7.4-1-.3-1.4-.3-1.1,0-.2,0-.4-.1-.5-.2-.4.2-.8.4-1.3.6.1,0,.3.2.4.4ZM70.3,2.8c-1.4-.3-.6-.4-.9-.6,1.3.4,1,.4.9.6ZM69.6,1c-.4.1.4.4-.3.4-.5-.2-1.1-.8.3-.4ZM67,2.5c1,.3.1.4-1.1,0-.4-.3,1,.1,1.1,0ZM62.1,2.1c-1.4-.4,0-.3-.9-.6,0-.1,1.3.3,1.1,0,1.3.5-.8,0-.7.2.3.2,2,.5,1.6.6-.6-.1-1-.5-1.2-.4ZM60,2.8c.5.2.8.4,1.2.5.6.2,1.3,0,.3-.2,1.5.2,1.3.8.9.8-1.4-.2-1.5-.8-1.9-.5-1.3-.4-.4-.5-.5-.6Z"/>
  <path class="cls-24" d="M43.8,7.2c.4-.2.9-.4,1.5-.3.1,0,.3,0,.4-.1.3-.1.6-.2.9-.3,0,0,.2,0,.3,0,.5-.2.9-.3,1.4-.4,0,0,.1,0,.2,0,.3,0,.4,0,.6,0,.4,0,.8-.2,1.2-.3.1,0,.3,0,.4,0,.8-.2,1.7-.4,2.5-.5-.2-.3-.3-.6-.2-1-1.4.3-4.4,1.2-4.2,1.6-.9.2-.5,0-.4-.3-.7.2-1,.4-1.1.5-.3-.5-.5-.6-.5-1.2-.3,0-2,.5-2.7.8.6.3-.6,1.2-.6,1.7,0,0,.1.1.3.1Z"/>
  <path class="cls-23" d="M78.9,3.2c-.2-.2,1.4-.2-.9-.7.9.4-.4.3.9.7Z"/>
  <path class="cls-28" d="M91,6.4s0,0,0,0c0,0,0,0,0,0,0,0,0,0,0,0Z"/>
  <path class="cls-27" d="M98.9,11.1c-.1,0,.1.3-.4.2.2.1.7.3,1.3.4-.3-.2-.6-.4-.9-.6Z"/>
  <path class="cls-22" d="M122.8,51c.4-.2.4-1.1,1-.6-.3.2-.4,1.2-.9,1,.2,1,.4,2.1.6,3.1.5-.2.9-.4,1.3-.7.6-.5-.4-3.7-2.5-7.9-.4-.4-.7-.6-1-.6.6,1.9,1.1,3.8,1.6,5.7Z"/>
  <path class="cls-21" d="M126.7,65.2c.3-1.4,0-3.5-1.6-7.7-.6-.8-1-.9-1.3-.8,0,.4.1.7.1,1.1,0,.1,0,.3,0,.4.2,4.6,1,9.9-.2,14,0,.1,0,.3,0,.4,0,.5-.1,1-.2,1.5,0,.1,0,.3,0,.4.2.3.2.6.2.9,0,0,.1,0,0,.2-.2.3-.3.5-.4.6-.2.5-.6,1-.6,1.7,0,0,0,.2,0,.2,0,.2-.1.5-.2.7,0,.1,0,.2,0,.3.6,1.1-.8,1.6-.8,2.8,0,0,0,.1,0,.3,0,.2-.1.4-.2.5,0,.1,0,.3-.1.4-1.3.7-.2,2.8-1.2,3.4,0,.1-.1.3-.2.4-.4,2.1-1.8,3.3-2,4.4,0,.1-.1.2-.2.3,0,.1-.1.2-.2.3,0,.1-.1.2-.2.4-.2.8-.6,1.6-1,2.3.1,0,.2,0,.4-.1-.5.8-.9,1.2-1.1,1.1-.7.9-1.4,1.8-1.9,2.8,0,.1-.1.2-.2.3-1.1,1.6-2.3,3.1-3.5,4.6,0,0-.2.2-.2.3-.4,1.3-1.8,1.8-2.9,3.1,0,0-.2.2-.3.3-.6.6-1.3,1.2-1.9,1.9,0,0-.2.2-.3.3-.2,1.1-1.4.3-1.7,1.5,0,0-.2.2-.3.2-1.3,1.1-2.6,2.1-4,3-.1,0-.2.2-.3.2-1.5,1.1-2.8,1.6-4.1,2.6,2.1-.3.7.2.8.4.3.5,1.9.7,2.9,1.1.7-.5,1.6-.7,2.3-1.1-.4-.2-.8-.4-1-.8,1.2-.3,1.4-.5,2.6-.7,0,0,.2-.1.3-.2-.2,0-.3,0-.5.1.3,0,.5-.1.6-.2,0,0,.2-.1.3-.2-.2,0-.6,0,.3-.3-2.9,0,.2-1.3-3-1.4,2.4,0,3.1.4,3.7,1,0,0,0,0,0,0,.1,0,.2-.2.3-.2,1-1.9,3.6-2.2,4.4-3.9,0,0,.2-.2.3-.3.2-.2.4-.4.6-.5,0,0,0,0,.1-.1.7-1.7,2.7-2.2,3.8-4.2.1-.1.2-.2.3-.3.9-1.1,1.8-2.2,2.6-3.4,0,0,.1-.2.2-.2,1,0,.6-2,1.7-2.6,0-.1.1-.2.2-.3.1-.2.3-.5.4-.7,0-.1.1-.2.2-.3.1-.3.2-.5.4-.7-.9.2-1.6,0-1.7-1.7,1-.5,1.5.4,2.4.2,1.5-3,2.9-6,4.1-9,0,0-.1,0-.2,0-.3-.4.4-3.1-.3-2.5,1-2.3.8-.7,1.1-.7.2,0,.4,0,.6-.2.2-.5.3-.9.5-1.4,0,0,0-.1,0-.2.2-.7.4-1.5.5-2.2,0,0,0,0,0,0,0-.1,0-.3.1-.4.2-.9.4-1.8.5-2.6,0-.1,0-.3,0-.4,0,0,0,0,0,0-.2.1-.5.6-.1-.4-1.7,2.4-1.2-1-3.1,1.6,1.4-2.1,2.3-2.3,3.3-2.5,0,0,.2-.3.3-.6.1-.9.2-1.8.3-2.6,0-.1,0-.2,0-.4,0-.1,0-.3,0-.4-.2,0-.4,0-.4,0-1.2.4-1.3.4-.9,0-.6.1-1.1.2-1.1.3-.9,0,0-.5.3-.8-.4.4.8.4,2.1.4.1-1.5.2-2.9.2-4.4,0,0,0,0,0,0-.3-.1-.7-.1-.9,0ZM100.4,113c-.6,0-.8,0-.8-.1,1-.2,1.2,0,.8.1ZM122.4,83.7c0-.3.3-.9.5-1.5,0,0,0,0,.1.1-.4,1-.6,1.6-.7,1.4Z"/>
  <path class="cls-26" d="M56,124.4c.9,0,.9,0,1,.2.5,0,1-.2,1.2-.3-.2,0-.3,0-.5,0-.6,0-1.2-.1-1.8-.2,0,0,0,0-.1,0,0,0,0,0,0,0-4.2-.6-8.3-1.6-12.2-3,0,0-.2,0-.2,0-1.4-.5-2.1-.5-2.9-1.2-.1,0-.2-.1-.4-.2-1.6-.7-3.1-1.4-4.6-2.2-.1,0-.2-.1-.3-.2-1.8-.9-3.7-1.7-5-3.1,0,0-.1,0-.2-.1-3.6-2.5-6.9-5.3-9.9-8.5,0,0-.2-.2-.3-.3-.8-1.5-2.6-2.3-3.1-3.6,0,0,0-.1-.1-.2,0-.1-.2-.2-.2-.3,0,0,0-.1-.1-.2-1.9-1.6-2.3-4.3-4-5.8,0,0,0-.1-.1-.2-.4-.6-.7-1.2-1.1-1.9,0-.1-.1-.2-.2-.3-1-1-1.5-3-2-4.1,0,0,0-.2-.1-.3,0-.2-.1-.3-.2-.5,0,0,0-.1,0-.2,0-.5-.3-1.3-.7-2.1-.2,2.2-1.1,3.1-2.1,3.9.1.3.3.6.4.9,0,.1.1.2.2.4q-.2.6.3.7c0,.1.1.2.2.4.3.7.7,1.4,1.1,2.1,0,.1.1.2.2.3,1,.7.8,2,1.5,2.7,0,0,0,.1.1.2,0,0,0,.1.1.2,0,.1.1.2.2.4,0,1.3,1.3.8,1.3,1.9,0,.1.2.2.2.3.3.4.5.7.8,1.1,0,0,0,.1.1.2,1,2,2.1,3.4,3.8,4.8,0,0,.2.2.3.3.9,1,1.7,1.9,2.7,2.8,0,0,.1.1.2.2,1.2.4,1.1,1.1,1.9,1.8,0,0,.1.1.2.2.3.3.6.5.9.8,0,0,.2.2.3.3.2.2.9.3.6.5,0,0,.2.2.3.3,3.1,2.6,6.5,4.9,10,6.9,0,0,.1,0,.2.1.6.9,2,.3,2.7,1.4.1,0,.2.1.4.2.8.4,1.5.7,2.3,1.1,0,0,.1,0,.2,0,1.2.7,2.5.9,4,1.6.1,0,.3,0,.4.1.5.2,1,.3,1.5.5.2-1-1.5-1.5-1-2.6,1.5.9,1.9,2,2.6,3.1,3.4,1,6.9,1.6,10.5,2,0,0-.3-.2-.7-.2.7,0,1,0,.9.1,0,0,0,0,.1,0,0-.1,0-.2.2-.4,0,0,0,0,0,0-1.2-.1-.6-.5-1.9-.6.1-.1,0-.2,1.1-.3,0-.2-1.5,0-1.4-.2.9,0,1.1,0,1.8,0,1.6-.3,0-.3.4-.6-.4-.1-1.2.1-2,0,.8-.1,0-.3,1.8-.4-.3-.2-.7-.2.2-.4-.3,0-.7,0-1.3,0-1.1.2.6.2.3.4-2,0-1.6-.2-.4-.6ZM41.7,122.5c-1.2.3-1.2,0,0-.2,0,0,0,.1,0,.2ZM44,122.1c-.8,0-.6-.2-.4-.4.5,0,.7.3.4.4ZM47.3,124.8c-1.1,0,.9-.2-.6-.2.5,0,.7,0,.8-.1,1.5-.1.2.2-.2.4ZM48.6,122.8c1,0,.9.3.7.6-1.1.1-.9-.4-.7-.6ZM49.3,123.9c-.9.2-.1-.2-.4-.3.5,0,1.2,0,.4.3ZM51.2,124.2c-.3-.2,1.3-.5.5-.5,1.5-.2,0,.5-.5.5Z"/>
  <path class="cls-25" d="M28,12.7c1.5-.4,1.4-.2,1.2.1,2.8-.9,1.1.3,4.3-.7,0-.3.6-.7,1.5-1.2-.5,0-2.7.9-2.7.8,1.3-.7-.6-.8-.9-1.1-1.9.6-1.6.7-3,1.1-.2.1-.4.3-.6.4,0,.2,1,0,.4.7Z"/>
  <path class="cls-20" d="M109.2,24.4c2,2.3,3.8,4.7,5.5,7.2,0,0,0,.1.1.2,1.4,2.1,2.5,4.1,3.6,6.4,0,0,0,.1,0,.2.2.4.4.9.6,1.4.2,0,.3-.2.5-.2.8-.5,1.6-1.1,1.5-3,.2.3.4.3.5.3-.8-1.6-1.9-3.1-2.7-4.6,0-.1-.1-.2-.2-.3-.2-.3-.4-.7-.6-1,0-.1-.1-.2-.2-.3-.2-.2-.4-.4-.6-.6-1.6-1.4-3.4-3.2-4.1-1.9-.9-1.6-1.8-3.1-2.7-4.6-.3.4-.8.6-1.2,1.2Z"/>
  <path class="cls-34" d="M72.2,102.9c.1,0,.3,0,.4,0,.5.7,1.2-.6,1.9-.5.1,0,.3,0,.4-.1,1.1-.3,2.2-.7,3.3-1.1.1,0,.2,0,.4-.1.6.5,1.3-.7,1.8-.8.1,0,.2-.1.4-.2,2.9-1.3,5.6-3,8.2-5.1l-2.1-2.6c-2.8,2.3-5.9,4.1-9.2,5.4-.1,0-.3.1-.4.2-3.8,1.7-8.4,2.5-12.7,2.5-.1,0-.3,0-.4,0-1.2,0-1.8,0-2.9-.1-.1,0-.2,0-.4,0-.2,0-.4,0-.7,0-.1,0-.3,0-.4,0-1.4-.2-2-.2-3.1-.5,0,0-.1,0-.2,0-.1,0-.3,0-.4,0-1.7.7-2.2-.7-3-.8-.1,0-.3,0-.4-.1-1.7-.6-3.4-1.2-5-2,0,0-.1,0-.2,0,0,0-.1,0-.2,0-1.2,1.6-.9-1.6-1.4-.8-.1,0-.2-.1-.4-.2-.7-.4-1.5-.9-2.2-1.4,0,0-.1,0-.2-.1-2.9-1.7-5.3-4.5-7.4-6.9,0,0,0,0,0,0-.2.8-.9.8-1.3,1,0,0-.1.1-.2.2-.6.5-1.1.9-1.1.9,2.6,3.2,5.6,5.9,8.9,8.1,0,0,.1.1.2.1,2.5,2.5,6.3,2.9,9.2,4.4,0,0,.1,0,.2,0,.6.2,1.1.4,1.7.5.1,0,.3,0,.4.1,1.2-.2,1.8,0,2.7.6.1,0,.3,0,.4,0,.9.2,1.9.3,2.8.4,0,0,.2,0,.3,0,0,0,0,0,0,0,.2,0,.5,0,.7,0,.1,0,.3,0,.4,0,.1,0,.3,0,.5,0,.3-.2.4-.4-.1-.4.7,0,.6-.1,1.1-.2-1.2,0,.7-.6-1.5-.3,0-.2,1-.4.1-.4,1.3-.3,2.1-.4,2.5-.7-.3,0-1.4.2-2,.2.3,0,.3-.2.3-.2.6,0,2,0,1.5-.3,1,0,1,.2.8.5-2.1,0,0,.3-2.2.5.4,0,1.5,0,2.1-.1.2.6,0,1.1-.5,1.6,1.1,0,2.5.1,3.5-.2.1,0,.3,0,.4,0,.1,0,.3,0,.4,0,.1,0,.3,0,.4,0,.7.2,1.4.3,1.1-.1.1,0,.3,0,.4,0,.8-.1,1.5-.3,2.3-.4ZM58.1,102.9c.3-.2.2-.2-.2-.3.4,0,.8-.1,1.2-.2-.4.1-.3.1.5,0,0,.1-.4.3-1.4.4Z"/>
  <path class="cls-38" d="M61.8,103.7c.1,0,.3,0,.4,0,0,0,.2,0,.3,0,0,0,0,0,.2,0-.2,0-.5,0-.8,0,0,0,0,0,0,0Z"/>
  <path class="cls-30" d="M62,120.5h.2c0,.1,0,0,0,0,0,0,0,0-.2,0Z"/>
  <path class="cls-31" d="M61.7,120.3c0,0,.2,0,.3,0-.1,0-.3,0-.5,0h.2Z"/>
  <path class="cls-37" d="M59.8,118.8c.9,0,.6.2,1.8.1.1,0-1,.2-1.6.2l.3.2c0,0,.1,0,.2,0,1-.1.4.2,1.7,0,0,0-.1,0-.4,0,0,0,0,0,0,0-.5,0-.7,0-1.3,0,.1.2,1.3,0,1.1.3-.2,0-.5,0-.8,0l.2.2c.2,0,.2,0,.1-.1.9,0-.3.2.6.2,0,0,.2,0,.2,0,.1-.5.6-1.5-.2-2.3,0-.3,0-.6,0-.9,0-.5,0-.9,0-.9l3.6-2.9-4.5-1.1-1.6-4.3s-.8,1.3-1.5,2.4c0,.1-.2.3-.3.4-.5,1.1-1.1,1.1-2.5,1.2-.3,0-.7,0-1,0-1,0-1.8,0-1.8,0,0,0,.6.8,1.3,1.6.4,0,.7,0,.5,0-.1,0-.3,0-.4,0,0,0,0,0,0,0,.2.2.5.4.7.7,0,0,.2,0,.3,0,0,0-.2,0-.2,0,.3.4.5.8.7,1.3,0,0,0,.2,0,.3-.3,1.2-1.1,3.9-1.1,3.9l1.6-.6c0-.1,0-.2-.2-.3.5,0,.7,0,.8,0l2-.8,1.4.9c.1,0,.2-.1,0-.1ZM61,116.3c-1.4.1-.3,0-.6-.2.4,0,.8,0,1.2-.1.4.1-1,.2-.6.3ZM63.4,114.2c-1.2,0,.4-.3-.3-.4,2.2-.2.4.2.3.4ZM63.3,112.9c-.9.2,1.4.5-1.3,1.2-1.2.2.9-.3-.5,0,.9-.3,1.9-1-.6-.9.7-.3,1.6-.1,2.4-.2ZM58.9,110.5c.7,0,.6.1,1,.2-1.5.2-1.6,0-1-.2ZM60.2,114.6c-.3,0,.3-.3-.6-.2.6-.2,3.1,0,.6.2Z"/>
  <path class="cls-35" d="M81.8,114.3c0-.1,0-.2,0-.3,0-.2,0-.3,0-.3l3-2.3-3.6-.9-1.3-3.5s-.5.8-1,1.6c0,.1-.2.3-.3.4.3,1.7-1.6.8-2.6,1.2,0,0-.2,0-.2,0-.9,0-1.6,0-1.6,0,0,0,.9,1.1,1.6,1.9.5,0,.1.4.5.5,0,0,0,0,0,0,0,0,0,0,0,0,0,0,.2.2.2.3q.2.7,0,1.1c0,.1,0,.3-.1.4-.3,1-.6,2.3-.6,2.3,0,0,.6-.2,1.3-.5.1,0,.3-.1.4-.2,1.1-.9,2-.8,2.9-.2.4,0,.7,0,.9.2-.3,0-.5,0-.6,0,.5.4,1,.8,1.6,1.3.8-1.2-.4-2-.1-3.2ZM77.1,110.5c.6,0,.9,0,1,.2-.4,0-.9,0-1.6.1.1-.1,1.1-.2.6-.3ZM76.9,112c-.4.2-.5-.2-1.3,0,1-.3,2.1-.2,2.7-.4,1.9,0-2.4.4-1.4.5Z"/>
  <path class="cls-33" d="M44.6,107c-1.3-.1-3.3.3-4-1.7,0,0,0-.1,0-.2-.4-1-.9-2.4-.9-2.4,0,0,0,0-.1.2,0,.1-.2.4-.4.6-.6.2-.7.9-.9,1.5-.1.3-.3.5-.4.6,0,.1-.1.2-.1.2h-3.8c0,.1,2.4,3,2.4,3l-1,3.6s2-.8,2.9-1.2c.1,0,.2,0,.3-.1,1.2-.8,1,1.7,2.5,1.4.1,0,.3.2.4.3.3.2.5.3.5.3,0,0,0-.7,0-1.4,0-.2,0-.3,0-.5-.5-2.8,1.5-3.2,2.9-4.3Z"/>
  <path class="cls-32" d="M67.7,53.1l42.5,4.6s-1.3-7.1-6.6-8.7c-1.6-.5-6-1.8-11.3-3.4l-.4-1.7c-.3-1.2-1.2-2.1-2-1.9s-1.3,1.3-1,2.5h0c-3.2-.9-6.5-1.9-9.7-2.9l-.4-1.6c-.3-1.4-1.3-2.4-2.3-2.1s-1.4,1.3-1.2,2.5c-5.4-1.6-9.8-2.9-11.3-3.4l-2.2-9.7c-1.7-7.5-5.3-14.6-7.7-14s-2.6,8.5-.9,16l2.3,9.9c-1.4,1.3-4.6,4.1-8.3,7.6-.4-1.2-1.3-2-2.2-1.8s-1.5,1.5-1.2,2.9l.4,1.6c-2.5,2.2-5,4.6-7.5,6.8h0c-.3-1.2-1.2-2.1-2-1.9s-1.3,1.3-1,2.5l.4,1.7c-4.1,3.7-7.5,6.8-8.7,7.9-4.1,3.7-2.2,10.7-2.2,10.7l36-22.2,1.7,7.5c.8,3.6,2.6,9.4,4.5,14.4-3.1,3.5-5.8,6.4-6.7,7.4-2.9,3.1-1.2,9.4-1.2,9.4l11.8-8.5c.7,1.1,1.3,1.7,1.8,1.6s.8-1,.9-2.4l14.7,2.7s-1.2-6.4-5.2-8c-1.3-.5-5.2-2.1-9.7-4-.5-5.3-1.4-11.2-2.2-14.6l-1.7-7.7Z"/>
  <path class="cls-39" d="M52.5,26c-1,.8-.6.8-.2.9,0,0,0,0,0,0,1.5-.9.9-.9.3-.9Z"/>
  <path class="cls-39" d="M81.2,55.6c.2-.3.4-.6.8-.8-.4.3-.8.6-.8.8Z"/>
  <polygon class="cls-39" points="63.8 80.4 65 78.5 64.2 79.6 63.8 80.4"/>
  <path class="cls-39" d="M65,79.2l.4-.8-1.6,2.7c.4-.3,1.7-2,1.3-.9,1.7-3.4-.7.3-.2-.9Z"/>
  <path class="cls-39" d="M67.1,76.7l.4-1-.7,1.1c.4-.5-.3,1,.3,0Z"/>
  <g>
    <path class="cls-39" d="M60.7,44.1c0,0,0,.1,0,.2,0-.4,0-.2,0-.2Z"/>
    <path class="cls-39" d="M59.4,41c0,0,.1.1.1.1h.1s-.4-.3-.4-.3c0,0,0,0,.1.1Z"/>
    <path class="cls-39" d="M58.5,38.4c-.3.4-.1.6,0,.8.2.2.4.4.4.7v.2c0,0,0,0,.2,0,.1,0,.2,0,.2,0-.3-.6-.9-1.1-.9-1.6Z"/>
    <path class="cls-39" d="M59.7,36.1c0,0,0,0,0-.1,0,0,0-.2,0-.3-.3.3-.3-.1,0,.5Z"/>
    <path class="cls-39" d="M59.7,36c0,.3.2-.4,0,0h0Z"/>
    <path class="cls-39" d="M60,34.2c-.2-.3-.5,0-.8.5,0,0,.1,0,.2,0,0,0,.2,0,.2,0,.2-.2.2-.7.4-.6Z"/>
    <path class="cls-39" d="M58.5,34.8h.2c0,0,.1,0-.2,0Z"/>
    <path class="cls-39" d="M58.9,35c-.1,0-.2-.1-.2-.1-.1.2-.4.4.2.1-.3.2,0,0,.2.1,0,0,0,0-.2-.1Z"/>
    <path class="cls-39" d="M59,35.4c-.1.4-.2.7-.6.6.4.7.9.1.6-.6Z"/>
    <path class="cls-39" d="M57.7,38.8v.4s.3,0,.3,0c-.2,0,0-.6-.3-.5Z"/>
    <path class="cls-39" d="M59.3,31.6c-.3.2-.6.6-.9.9h.4c.1-.2.2-.6.6-.9Z"/>
    <path class="cls-39" d="M57.8,32.4c0,.4.3.4.5.1,0,0-.1,0-.3,0-.1,0-.3,0-.3,0Z"/>
    <path class="cls-39" d="M57.9,35.6c.2,0,.5,0,.5,0,0,0-.2,0-.5-.1-.3,0-.5-.1-.5-.1h0c0,.1.3.1.5.2Z"/>
    <polygon class="cls-39" points="59.7 29.6 58.7 29.8 59 29.8 59.7 29.6"/>
    <path class="cls-39" d="M58.8,27.6c.3,0,.3.4-.1,1.1.6-.2.9-1,1.3-1-.1-.3-.7-.2-1.2,0Z"/>
    <path class="cls-39" d="M58,27.7c.2,0,.5,0,.8,0-.2,0-.4,0-.8,0Z"/>
    <path class="cls-39" d="M58.4,30.6l-.7.7c0,0,0,.1,0,.2.2-.1.6-.5.7-.9Z"/>
    <path class="cls-39" d="M57.7,31.4h0c0-.2,0-.4,0-.4,0,0,0,.2,0,.4Z"/>
    <path class="cls-39" d="M57.8,31.6s0,0,0,0c0,0,0,0,0,0Z"/>
    <path class="cls-39" d="M57.5,34c-.4,0-1.1-.2-1.4.7.5-.2.7-.7,1.4-.7Z"/>
    <path class="cls-39" d="M57.6,32.6s-.2,0-.3,0c-.2,0-.3,0-.3,0v.6c.2-.1.4-.4.7-.4Z"/>
    <polygon class="cls-39" points="56.6 32.4 56.9 32.4 56.9 32.2 56.6 32.4"/>
    <path class="cls-39" d="M56.7,29.7c.3-.2.8-.4.7-.6-.4,0-.5-.1-.7-.3,0,.4,0,.7,0,1Z"/>
    <path class="cls-39" d="M57.5,30.3s0,0,0,0c0,0,0,.1,0,0Z"/>
    <path class="cls-39" d="M56,26.4c0,0-.1.1-.2.2,0,0,.1,0,.2-.1h0Z"/>
    <path class="cls-39" d="M56.6,29.9c0,.3.1.3.4.2-.1,0-.2-.2-.3-.4-.1,0-.2.1-.1.2Z"/>
    <path class="cls-39" d="M57.4,27.3c-.2.2-.3.5-.4.7.3-.3.7-.8.4-.7Z"/>
    <path class="cls-39" d="M57.6,30s0,0,0,0c.2-.2,0-.1,0,0Z"/>
    <path class="cls-39" d="M57.6,30c-.1,0-.4,0-.6,0,.1,0,.2.1.4.1,0,0,.1-.2.2-.2Z"/>
    <path class="cls-39" d="M50.1,29.7c-.3.2-.8.3-1,.6,1-.6,2.1-.8,1.4.2.9-.1,3.7-2.4,5.3-4-.4.3-.8.5-1.5.5-.5.5-.8,1.7-1.8,2-.8-.2,0-.7.5-1.3-1.1,1-2.1.5-3.9,1.9h.9Z"/>
    <path class="cls-39" d="M56,27.5h.2c0-.2.4-.6,1-1.4-.5,0-.9.2-1.2.4l.2,1h-.2Z"/>
    <path class="cls-39" d="M56.5,28.4c-1,.5-1.6.4-2.4,1.3.3.4.9-.2,1.5-.2-.6-.7.6-.1.9-1.1.2,0,.3.2.4.3,0-.2.1-.5.3-.7,0,0,0,0,0,0h0s0,0,0,0c-.1.1-.2.2-.1,0,0,0,0,0,0,0-.1,0-.2.1-.4.2.1-.4.2-.2.4-.2,0,0,0,0,.1,0h0s-.2-.1-.4-.3c-.2-.1-.4-.2-.4-.2,0,.3,0,.5.3.8Z"/>
    <path class="cls-39" d="M56,33.2c0,0,0,0,.2-.1,0,0,0,0-.2.1Z"/>
    <path class="cls-39" d="M56,33.2c-.5.5-.9.9-1.4,1.5.1,0,.4-.2.5,0-.1.3-.3.2-.6.4.3,0,.7,0,.9-.6h-.1c0-.4.5-1.1.7-1.4Z"/>
    <path class="cls-39" d="M55.1,31.8s-.2,0-.4-.2c-.2,0-.4-.2-.4-.2l-.6.9.4-.3c0,.5.5,0,.9-.2Z"/>
    <polygon class="cls-39" points="57.5 25.3 55.9 26 56.4 26 57.5 25.3"/>
    <polygon class="cls-39" points="56 25.2 57 24.5 56.3 24.7 56 25.2"/>
    <path class="cls-39" d="M52.2,16.1c.5-.6.6-1,.6-1.2-.7.9-1.9,1.9-.6,1.2Z"/>
    <path class="cls-39" d="M52.6,14.1c-.1.1-.2.2-.3.4.3,0,.6,0,.6.4.5-.6.9-1.2-.3-.7Z"/>
    <path class="cls-39" d="M55.3,21c.1.1.1,0,0,0h0Z"/>
    <path class="cls-39" d="M55.2,21.2c0,.1-.2.3-.3.5.1-.2.2-.3.3-.5Z"/>
    <path class="cls-39" d="M55.4,21.3c0,.1,0,.2,0,.3.2-.1.3-.2,0-.3Z"/>
    <path class="cls-39" d="M55.2,20.8c0,0,0,.2,0,.4,0,0,.1-.2.2-.2,0,0,0-.1-.2-.2Z"/>
    <path class="cls-39" d="M55.8,23.2c.3-.2.6-.5.7-.5l-.4-.2c.1.2-.1.4-.3.7Z"/>
    <path class="cls-39" d="M55.2,20.5c.8-.4.2-.4-.4-.2-.6.2-1.3.6-.7.7-.3.3,1.5-.9,1.1-.5Z"/>
    <path class="cls-39" d="M73.2,45.1l5.4-3.5-7.4,3.8c2.6-1.2,2.4-.8,2-.3Z"/>
    <polygon class="cls-39" points="87.2 50.9 91.1 48.4 87.1 50.8 87.2 50.9"/>
    <path class="cls-39" d="M70.1,81.4s0,0,0,0h-.2c0,0,0,0,.1,0Z"/>
    <path class="cls-39" d="M68.1,81.6c2.6-1.2,2.4-.8,2-.3l5.4-3.5-7.4,3.8Z"/>
    <polygon class="cls-39" points="84.1 87 84.2 87.1 88.1 84.6 84.1 87"/>
    <path class="cls-39" d="M71.8,86.9c1.1-.5.7-1,1.7-1.4-1.3.3-.8-.2-3.5,1.7-.6,1.1,2.7-1.5,1.8-.2Z"/>
    <path class="cls-39" d="M73.5,85.5c.2,0,.4-.1.8-.2-.3,0-.6.1-.8.2Z"/>
    <path class="cls-39" d="M60.7,83.5c0-.2-1,1.8-1.2,2.1.3-.4,1.5-2.6,1.2-2.1Z"/>
    <path class="cls-39" d="M61.7,87.7c.7-1.3.7-1.1.1-.5,0,.2-.1.2-.2.3,0,0,0,0,0,.1Z"/>
    <path class="cls-39" d="M61.7,87.6c-.2,0-.5,1.1,0,0h0Z"/>
    <path class="cls-39" d="M62.6,87.1l-.8,1.1c-.4.8-.4,1-.7,1.6.5-.6.9-1.3,1.5-2.7Z"/>
    <path class="cls-39" d="M64,84.7l-.3.5c-.2.3-.2.5.3-.5Z"/>
    <path class="cls-39" d="M63.4,85.5c.6-1,0,0-.4.6l.7-1c.3-.6.9-1.6-.3.3Z"/>
    <path class="cls-39" d="M64.4,83.2c-.5.3-1.8,2.7-1.2,2.4.3-.8.5-1.3,1.2-2.4Z"/>
    <path class="cls-39" d="M63.4,87.2c-.2.5-.4,1-.9,2.1.4-.7,1-1.9,1.5-2.9l-.5.8Z"/>
    <path class="cls-39" d="M63.9,86.5l.8-1.1c0-.2-.4.4-.8,1.1Z"/>
    <polygon class="cls-39" points="66.1 81 64.4 83.5 66.2 81 66.1 81"/>
    <polygon class="cls-39" points="63.5 88.9 63 89.7 62 91.3 63.5 88.9"/>
    <path class="cls-39" d="M63.5,89.6c-.8,1.3-1.2,2.4-1.7,3.2.2-.2,1-1.3,1.6-2.3-.4.5-.4.3,0-.8Z"/>
    <path class="cls-39" d="M64.4,89c-.2.3-.6.9-1,1.5.2-.3.5-.7,1-1.5Z"/>
    <path class="cls-39" d="M64.8,85.8c-.2.4-.8,1.6-1,2.1l1-2s0,0,0,0Z"/>
    <path class="cls-39" d="M64.9,85.8h0c0,.1,0,.2,0,.2,0,0,0,0,0-.2Z"/>
    <path class="cls-39" d="M64.8,85.8s0,0,0,0c.1-.2.1-.3,0,0Z"/>
    <path class="cls-39" d="M65.5,83c.7-1.1,1.5-2.2,2.3-4-.8,1.3-1.2,2.4-2.3,4Z"/>
    <path class="cls-39" d="M65.2,84.5l.9-1.3v-.5c-.2.5-.6,1.3-.9,1.9Z"/>
    <polygon class="cls-39" points="66.5 82.6 66.1 83.2 66.1 83.4 66.5 82.6"/>
    <path class="cls-39" d="M65.2,87c.5-.8.7-.9.8-1,.1-.4.1-.7,0-.8-.4.6-1,1.7-.9,1.7Z"/>
    <path class="cls-39" d="M65.1,86.2s0,0,0-.1c0-.2.1-.2,0,.1Z"/>
    <path class="cls-39" d="M67,86.1c0,.1-.1.2-.2.3h0c0,0,.1-.2.2-.3Z"/>
    <path class="cls-39" d="M66,85.3c.2-.3.3-.5.2-.4.1-.4-.2,0-.5.6.2-.2.3-.3.4-.3Z"/>
    <path class="cls-39" d="M65.2,88.2c.2-.4.3-.8.5-1.2-.3.7-.8,1.7-.5,1.2Z"/>
    <path class="cls-39" d="M64.9,86.7s0,0,0,0c-.2.4-.1.2,0,0Z"/>
    <path class="cls-39" d="M65.7,85.5c-.1.1-.3.3-.5.6,0,.2-.2.4-.3.6.2-.3.5-.8.8-1.2Z"/>
    <path class="cls-39" d="M66.8,86.4l-.2-.4.2-.3-.2.2c-.1.4-.5,1.1-1.1,2.7.6-.9,1-1.5,1.3-2.2Z"/>
    <path class="cls-39" d="M67.2,81.1c0,0,.1-.2.2-.5,0,.1-.2.3-.2.5Z"/>
    <polygon class="cls-39" points="66.3 87.5 65.1 89.6 66.9 86.7 66.3 87.5"/>
    <polygon class="cls-39" points="66.8 87.4 65.8 89.3 66.5 88.2 66.8 87.4"/>
    <path class="cls-39" d="M67.6,89c-.1,0-.1.2,0,0h0Z"/>
    <path class="cls-39" d="M67.8,88.7c0-.2.1-.4.2-.7-.1.3-.2.5-.2.7Z"/>
    <path class="cls-39" d="M67.5,89c0-.1,0-.2,0-.2-.2.3-.3.6,0,.2Z"/>
    <path class="cls-39" d="M67.6,89s0,0,.2,0c0,0,0-.1,0-.3,0,.1-.1.3-.2.3Z"/>
    <path class="cls-39" d="M67.1,88.3c-.2.5-.6,1.1-.7,1.3l.4-.5c-.1,0,.1-.4.3-.8Z"/>
    <path class="cls-39" d="M68.7,87.6c.2-.5-1.3,2.4-1,1.6-1.4,2.4,1.9-2.8,1-1.6Z"/>
  </g>
  <path class="cls-36" d="M109.6,66.8s0,0,0,0c0,0,0,0,0,0h0Z"/>
</svg>